<?xml version="1.0" encoding="UTF-8"?>
<svg width="1440px" height="80px" viewBox="0 0 1440 80" version="1.1" xmlns="http://www.w3.org/2000/svg" xmlns:xlink="http://www.w3.org/1999/xlink">
    <!-- Generator: Sketch 48.2 (47327) - http://www.bohemiancoding.com/sketch -->
    <title>pattern</title>
    <desc>Created with Sketch.</desc>
    <defs></defs>
    <g id="FSA-Banner-light" stroke="none" stroke-width="1" fill="none" fill-rule="evenodd">
        <g id="pattern" transform="translate(-241.000000, -280.000000)" fill="#FFFFFF" fill-rule="nonzero">
            <path d="M354.2,325.3 C354.4,325.7 355,326.5 355,326.9 C355,331.5 355,336 355,340.6 L355,342.2 C355,342.5 355,342.9 355.1,343.2 C355.4,344.4 356.6,345.2 357.8,345 C359.2,344.8 360.1,343.8 360.1,342.5 C360.1,342.3 360.1,341.9 360.1,340.9 L360.1,340.6 C360.1,336.4 360.1,330.8 360.1,326.6 C360.1,326.3 359.8,326.4 360,326.2 C360.4,325.8 360.8,325.3 360.9,324.7 C361.4,321.7 361.8,318.8 362.2,315.8 C362.3,315.4 362.1,315 362,314.6 C361.3,313 359.2,312.1 357.3,312.6 C356.1,312.9 355.3,313.5 355.1,314.8 C354.6,317.6 354.2,320.5 353.8,323.3 C353.8,324 353.9,324.7 354.2,325.3 Z" id="Shape"></path>
            <path d="M360.2,342.6 C360.2,343.2 360.2,338.5 360.2,342.6 Z" id="Shape"></path>
            <path d="M331,329.9 C330.7,333.7 330.3,337.5 330,341.3 C329.9,343.3 331.3,344.9 333.2,345 C335.2,345.1 336.8,343.7 337,341.7 C337.2,339.8 337.4,337.8 337.5,335.9 C338,330.7 338.4,325.4 338.9,320.2 C339.1,318 339.3,315.7 339.5,313.4 L348.3,313.4 C348.2,310.1 348.1,307 347.9,303.9 C347.9,303.1 348.1,302.5 348.6,301.9 C351.8,298.3 352.2,293 349.6,289 C345.5,282.8 341.4,276.6 337.3,270.4 C336.3,268.9 335,267.9 333.2,267.6 C329.7,266.8 326.7,267.9 324.2,270.4 C321.5,273 318.8,275.7 316.1,278.3 C314,280.3 314.1,282.4 316.4,284 C319.4,286.1 322.4,288.3 325.4,290.4 C326.7,291.4 328,292.2 330,291.3 C326.2,298.8 322.5,306.1 318.8,313.5 L332.4,313.5 C332.4,313.9 332.4,314.2 332.4,314.4 C332,319.6 331.5,324.8 331,329.9 Z" id="Shape"></path>
            <path d="M359.3,311 C361.9,311.5 364.6,309.6 365.1,307 C365.7,304.1 363.9,301.6 361,301 C358.4,300.5 355.7,302.3 355.2,305 C354.6,307.9 356.4,310.5 359.3,311 Z" id="Shape"></path>
            <path d="M393.1,314.4 C395.3,314.4 397.1,312.5 397.1,310.3 C397.1,308.1 395.3,306.2 393.1,306.2 C390.9,306.2 389,308 389,310.3 C389,312.5 390.9,314.4 393.1,314.4 Z" id="Shape"></path>
            <path d="M397.5,315.2 C394.8,315.2 392.2,315.2 389.5,315.2 C385.9,315.2 384,317.1 384,320.7 C384,324.6 384,328.6 384,332.5 C384,332.8 384,333.1 384,333.4 C384.2,334.2 384.7,334.8 385.6,334.8 C386.5,334.8 387,334.2 387.1,333.4 C387.2,333 387.1,332.6 387.1,332.2 C387.1,328.7 387.1,325.2 387.1,321.7 C387.1,321 387.2,320.5 388.1,320.9 L388.1,322.1 C388.1,332.4 388.1,342.7 388.1,353.1 C388.1,353.6 388.1,354.1 388.3,354.6 C388.6,355.6 389.6,356.3 390.6,356.2 C391.7,356.1 392.5,355.3 392.6,354.2 C392.6,353.8 392.6,353.5 392.6,353.1 C392.6,347.3 392.6,341.5 392.6,335.7 C392.6,335.1 392.6,334.5 393.6,334.9 L393.6,336 C393.6,341.7 393.6,347.4 393.6,353.1 C393.6,353.6 393.6,354.1 393.8,354.6 C394.1,355.6 395.1,356.3 396.1,356.2 C397.2,356.1 398,355.2 398.1,354.1 C398.1,353.8 398.1,353.4 398.1,353.1 C398.1,342.7 398.1,332.3 398.1,321.8 C398.1,321.2 398.1,320.5 399.1,321 L399.1,322.1 C399.1,325.5 399.1,328.8 399.1,332.2 C399.1,332.7 399.1,333.3 399.3,333.8 C399.5,334.6 400,335 400.8,334.9 C401.6,334.8 402.1,334.4 402.2,333.6 C402.3,333.3 402.3,333.1 402.3,332.8 C402.3,328.5 402.3,324.2 402.2,319.9 C402.4,317.1 400.3,315.2 397.5,315.2 Z" id="Shape"></path>
            <path d="M457.1,325.5 C456.4,327.7 455.8,329.8 455.1,332 C454.8,332.9 454.5,333.8 454.3,334.8 C454,335.8 454.4,336.5 455.2,336.8 C456,337 456.6,336.6 457,335.7 C457.1,335.5 457.1,335.4 457.1,335.2 C457.8,332.7 458.6,330.2 459.3,327.7 C459.4,327.4 459.7,327.2 459.9,327 C460,327.1 460.1,327.1 460.1,327.2 C458.6,332.3 457.2,337.4 455.7,342.6 C456.9,342.6 457.9,342.7 458.8,342.6 C459.6,342.5 459.9,342.8 459.9,343.7 C459.9,347.2 459.9,350.7 459.9,354.3 C459.9,355.8 460.4,356.4 461.4,356.4 C462.5,356.4 463,355.7 463,354.2 C463,350.7 463,347.2 463,343.7 L463,342.6 L464.3,342.6 L464.3,343.9 C464.3,347.4 464.3,350.8 464.3,354.3 C464.3,355.7 464.8,356.4 465.9,356.4 C466.9,356.4 467.4,355.7 467.4,354.4 L467.4,343.8 L467.4,342.7 L471.6,342.7 C470.1,337.5 468.6,332.4 467.2,327.3 L467.6,327.1 C467.8,327.4 468,327.6 468.1,327.9 C468.9,330.6 469.7,333.2 470.5,335.9 C470.8,336.9 471.5,337.3 472.3,337.1 C473.1,336.8 473.5,336.1 473.2,335.2 C472.2,332 471.3,328.7 470.3,325.5 C469.6,323.4 468.3,322.6 466.1,322.6 C464.6,322.6 463.2,322.6 461.7,322.6 C459,322.2 457.8,323.1 457.1,325.5 Z" id="Shape"></path>
            <path d="M467,318.1 C467,316.2 465.6,314.7 463.7,314.7 C461.8,314.7 460.3,316.2 460.3,318.1 C460.3,319.9 461.8,321.5 463.6,321.5 C465.5,321.6 467,320 467,318.1 Z" id="Shape"></path>
            <path d="M1685.1,316.4 C1680.1,316.4 1677.2,320.1 1678.6,325 C1680.2,331.1 1681.9,337.2 1683.6,343.3 C1683.8,344 1683.7,344.4 1683.2,344.8 C1681.1,346.8 1680,349.3 1679.8,352.1 C1679.5,359 1684.9,364.3 1691.7,363.8 C1697.4,363.4 1702.2,357.8 1701.5,352.1 C1701.3,350.2 1700.6,348.4 1700.1,346.5 C1701,346.5 1702.2,346.5 1703.4,346.5 C1704.9,346.5 1706.6,346.9 1707.7,346.3 C1708.8,345.7 1709.3,344 1710,342.7 C1710.4,342 1710.8,341.8 1711.6,341.8 C1718.8,341.8 1726,341.8 1733.2,341.8 L1734.3,341.8 C1734.7,353.1 1741.8,360.4 1749.6,362.8 C1758.4,365.6 1767.8,362.9 1773.3,355.5 C1780.7,345.6 1779.6,335.7 1772.1,326.2 C1773.4,325.2 1774.7,324.2 1776,323.2 C1776.2,323 1776.6,322.7 1776.6,322.5 C1776.7,321 1776.6,319.5 1776.6,317.9 L1765.7,317.9 L1765.7,289.8 L1761,289.8 L1761,318 L1759.6,318 C1753.2,318 1746.9,318 1740.5,318 C1738,318 1736.8,319.2 1736.8,321.7 C1736.8,324.8 1736.8,327.8 1736.8,330.9 L1736.8,332.1 L1723.6,332.1 C1726.7,325.8 1729.8,319.6 1732.9,313.2 C1729.3,313.2 1725.9,313.3 1722.6,313.2 C1720.9,313.1 1719.9,313.6 1719.4,315.3 C1719.1,316.3 1718.5,316.5 1717.6,316.5 C1706.7,316.4 1695.9,316.4 1685.1,316.4 Z M1690.7,357.6 C1688.2,357.6 1686,355.4 1686,352.9 C1686,350.3 1688.1,348.2 1690.6,348.2 C1693.2,348.2 1695.2,350.2 1695.3,352.8 C1695.3,355.4 1693.3,357.6 1690.7,357.6 Z M1756.2,329.1 C1763.1,329.1 1768.7,334.7 1768.7,341.7 C1768.7,348.6 1763.1,354.3 1756.2,354.4 C1749.4,354.4 1743.7,348.7 1743.7,341.8 C1743.7,334.8 1749.3,329.2 1756.2,329.1 Z" id="Shape"></path>
            <path d="M1064.3,309.5 C1065.9,309.2 1066.7,308.4 1066.7,306.9 L1072,255.7 C1072.2,254.5 1071.7,253.9 1070.4,253.9 L1033.1,253.9 C1031.8,253.7 1031.2,254.4 1031.4,255.8 L1036.7,307.6 C1036.8,308.8 1037.5,309.4 1038.7,309.5 L1064.3,309.5 Z M1062.1,307.1 C1062,307.3 1061.9,307.4 1061.7,307.4 L1041.6,307.4 C1041.4,307.4 1041.3,307.3 1041.2,307.1 C1041.1,306.9 1041,306.7 1041,306.4 C1041,306.1 1041,305.9 1041.2,305.7 C1041.3,305.5 1041.4,305.4 1041.6,305.4 L1061.7,305.4 C1061.9,305.4 1062,305.5 1062.1,305.7 C1062.2,305.9 1062.3,306.1 1062.3,306.4 C1062.3,306.7 1062.2,306.9 1062.1,307.1 Z M1035.8,268.1 L1034.9,258.6 C1034.7,257.4 1035.2,256.8 1036.3,257 L1067.4,257 C1068.5,257 1068.9,257.6 1068.7,258.6 L1067.7,268.5 C1067.1,268.5 1066.5,268.5 1065.9,268.5 C1063,268.2 1060.1,267.6 1057.3,266.6 C1054.4,265.5 1051.5,265.4 1048.5,266.3 C1046.9,266.8 1045.5,267.5 1044.2,268.4 C1043.1,269.2 1042,269.7 1041,269.9 L1039.2,269.9 C1038,269.5 1036.9,269 1035.8,268.1 Z" id="Shape"></path>
            <path d="M1142.2,369 C1142.2,364.4 1142.2,359.8 1142.2,355.2 C1142.2,354.6 1142.1,354 1141.9,353.5 C1140,348.7 1138,343.9 1136.1,339.1 C1135.9,338.5 1135.6,338.2 1134.9,338.2 C1128.2,337.7 1121.5,337.2 1114.7,336.7 C1114.5,336.7 1114.3,336.7 1114,336.7 L1114,363.5 L1071.6,363.5 C1074.2,365.8 1075.5,368.5 1075.6,371.7 L1117.5,371.7 C1117.8,368.1 1119.2,365.1 1122.2,363.1 C1124.2,361.7 1126.5,361.1 1129,361.3 C1132.9,361.6 1138.1,364.5 1138.7,371.6 C1140.9,372.2 1142.2,371.3 1142.2,369 Z M1122.3,352.5 L1122.3,341.2 C1122.6,341.2 1122.9,341.1 1123.1,341.2 C1126.5,341.5 1129.9,341.7 1133.2,342 C1134,342.1 1134.3,342.4 1134.5,343.1 C1135.8,346.5 1137.1,349.8 1138.4,353.2 C1138.6,353.7 1138.7,354.1 1138.9,354.7 C1133.4,353.9 1127.9,353.2 1122.3,352.5 Z" id="Shape"></path>
            <path d="M546.7,322.7 L490.8,322.7 C488.8,322.4 488,323.4 488.3,325.5 L496.3,403.2 C496.5,405 497.5,405.9 499.3,406.1 L537.6,406.1 C540,405.7 541.2,404.4 541.2,402.2 L549.1,325.4 C549.4,323.6 548.6,322.7 546.7,322.7 Z M534.2,402.5 C534.1,402.8 533.9,402.9 533.6,402.9 L503.5,402.9 C503.2,402.9 503.1,402.8 502.9,402.5 C502.7,402.2 502.6,401.9 502.6,401.4 C502.6,401 502.7,400.6 502.9,400.3 C503,400 503.2,399.9 503.5,399.9 L533.6,399.9 C533.9,399.9 534,400 534.2,400.3 C534.4,400.6 534.5,400.9 534.5,401.4 C534.5,401.8 534.4,402.2 534.2,402.5 Z M544,329.6 L542.6,344.4 C541.7,344.4 540.8,344.4 539.9,344.3 C535.5,343.9 531.2,343 527,341.4 C522.7,339.8 518.3,339.6 513.7,341 C511.4,341.7 509.2,342.8 507.2,344.2 C505.5,345.4 503.9,346.1 502.4,346.4 L499.8,346.4 C498.1,346.1 496.4,345.3 494.7,343.9 L493.3,329.6 C493,327.8 493.7,327 495.4,327.1 L542,327.1 C543.7,327.3 544.3,328.1 544,329.6 Z" id="Shape"></path>
            <path d="M849.8,313.3 C849.7,313.6 849.6,313.9 849.6,314.2 C847.1,312.6 844.9,313 843.3,315.3 C843,315.8 842.7,315.9 842.1,315.8 C841.1,315.7 840.2,316 839.6,316.8 C837.5,319.1 836.8,321.9 836.2,324.9 L899.8,324.9 C899.8,324.8 899.9,324.7 899.9,324.7 C898.9,320.9 897.4,317.4 894.5,314.6 C894.3,314.4 893.7,314.3 893.4,314.4 C891.8,315.1 890.2,315.9 888.5,316.6 C887.6,317 887,317.6 886.6,318.6 C886.1,320.2 885.4,321.7 884.8,323.4 C884,322.4 883.3,321.5 882.6,320.7 C882.3,320.4 881.8,320.2 881.4,320.2 C880.5,320.4 879.9,320.3 879.6,319.3 C879.6,319.1 879.4,319 879.3,318.9 C878.7,319.2 878.2,319.4 877.6,319.7 C877.3,319.1 877,318.6 876.8,318.1 C876.3,317.2 875.8,317.2 875.1,317.8 C874.9,317.9 874.8,318.1 874.7,318.2 C874.3,318.8 873.8,318.9 873.1,318.5 C872.1,317.8 871,317.8 870,318.7 C869.7,318.9 869.5,319.2 869.1,319.5 C867.9,318.8 866.7,318.1 865.4,317.4 C866.9,314.2 869,311.7 871.8,309.9 C875,307.8 878.4,307.1 882,308.8 C883.3,309.4 884.3,309.3 885.4,308.4 C883.9,307 882.2,306.1 880.1,306.9 C877.9,304 874.9,303.2 871.5,303.5 C868.7,303.8 866.4,305.2 864.3,307 C864.1,307.2 863.6,307.3 863.3,307.3 C861.7,307.1 860.1,306.7 858.5,306.7 C854.2,306.9 851,309.5 849.8,313.3 Z" id="Shape"></path>
            <path d="M1623.1,357.7 C1623.3,358.3 1624,359 1624.5,359 C1631.3,359.1 1638,358.4 1644.4,355.6 C1650.1,353.1 1653.5,348.8 1655.5,343 C1658.2,335 1658.7,326.7 1658.5,318.4 C1658.5,318.2 1658.4,318 1658.3,317.5 C1654.7,318.1 1651,318.6 1647.4,319.4 C1641.6,320.6 1636,322.2 1630.7,324.9 C1623.1,328.8 1619.7,333.9 1620,344 C1620.3,348.7 1621.4,353.3 1623.1,357.7 Z" id="Shape"></path>
            <path d="M1266.1,220.1 C1266.3,219.8 1266.4,219.6 1266.6,219.3 C1267,218.5 1266.8,217.7 1266,217.2 C1265.2,216.7 1264.4,216.9 1263.8,217.7 C1263.6,218 1263.4,218.3 1263.2,218.6 C1259.3,225.3 1255.4,232 1251.6,238.7 C1250.3,241 1249.2,243.4 1248.2,245.8 C1247.1,248.7 1246.3,251.8 1247.5,254.8 C1247.8,255.6 1247.7,256.1 1247.3,256.8 C1246.5,258.1 1245.8,259.4 1245,260.7 C1237.9,248.4 1230.8,236.2 1223.8,223.9 C1223.5,223.4 1223.2,222.9 1222.8,222.4 C1221.4,220.6 1218.9,220.1 1217,221.4 C1215,222.7 1213.8,224.6 1213.5,226.8 C1213.2,229.3 1212.9,231.9 1213.3,234.3 C1214.9,244.9 1219.9,253.9 1227.6,261.3 C1230.4,264 1233.5,266.2 1237.4,267 C1238.5,267.2 1239.1,267.7 1239.7,268.7 C1239.8,268.9 1240,269.1 1240.1,269.4 C1237.5,273.9 1234.9,278.4 1232.3,283 C1227.2,291.8 1222.2,300.5 1217.1,309.3 C1215.8,311.6 1216.4,314.3 1218.6,315.5 C1220.8,316.7 1223.3,316 1224.7,313.6 C1225.9,311.6 1227,309.6 1228.2,307.5 C1233.8,297.7 1239.5,287.9 1245.2,278.1 C1251.9,289.7 1258.5,301.2 1265.2,312.8 C1265.5,313.4 1265.9,313.9 1266.2,314.4 C1267.8,316.4 1270.9,316.5 1272.7,314.6 C1274.2,313 1274.3,311.1 1272.9,308.7 C1265.3,295.6 1257.8,282.5 1250.2,269.4 C1251.8,266.6 1253.4,263.9 1255,261.1 C1255.2,260.7 1255.7,260.2 1256.2,260.1 C1258.3,259.8 1260,258.9 1261.6,257.5 C1264.5,255 1266.6,251.9 1268.5,248.6 C1272.5,241.8 1276.4,234.9 1280.3,228.1 C1280.5,227.8 1280.6,227.5 1280.7,227.2 C1281,226.4 1280.8,225.7 1280,225.2 C1279.2,224.7 1278.4,224.9 1277.9,225.7 C1277.7,226 1277.5,226.3 1277.3,226.6 C1273.6,233 1269.9,239.4 1266.2,245.8 C1265.7,246.6 1265.3,247.9 1264.1,247.2 C1263,246.6 1263.8,245.6 1264.3,244.8 C1268.1,238.2 1271.9,231.6 1275.7,225 C1276.3,223.9 1276.2,223 1275.3,222.4 C1274.5,221.9 1273.5,222.2 1272.9,223.2 C1272.7,223.5 1272.6,223.8 1272.4,224 C1268.8,230.3 1265.1,236.6 1261.5,242.9 C1261.2,243.3 1261,243.8 1260.6,244.2 C1260.3,244.4 1259.7,244.6 1259.4,244.4 C1259.1,244.2 1259,243.6 1259,243.3 C1259.1,242.8 1259.4,242.3 1259.6,241.9 C1263.3,235.5 1267,229.1 1270.6,222.8 C1270.8,222.4 1271.2,222 1271.2,221.6 C1271.1,221 1271,220.1 1270.5,219.7 C1269.9,219.1 1269,219.4 1268.5,220 C1268.2,220.3 1268.1,220.7 1267.9,221 C1264.2,227.5 1260.5,233.9 1256.7,240.4 C1256.4,240.8 1256.1,241.3 1255.7,241.6 C1255.4,241.8 1254.9,241.9 1254.6,241.8 C1254.3,241.7 1254.1,241.1 1254.2,240.8 C1254.3,240.3 1254.5,239.8 1254.8,239.4 C1258.7,233 1262.4,226.5 1266.1,220.1 Z" id="Shape"></path>
            <path d="M283.8,276.8 C284,278.4 285.1,279.4 286.6,279.5 C288,279.5 289.2,278.5 289.5,277 C289.6,276.5 289.6,275.9 289.6,275.4 C289.6,268.6 289.6,261.7 289.6,254.9 C289.6,253.9 289.5,252.9 289.4,251.9 C288.9,247.4 285.6,244.2 281.4,244.1 C275.6,244 269.9,244.1 264.1,244.1 C262.5,244.1 261.1,244.6 259.8,245.5 C257,247.5 256,250.4 256,253.7 C255.9,261.1 256,268.4 256,275.8 C256,276.3 256.1,276.8 256.2,277.3 C256.5,278.6 257.6,279.4 258.9,279.5 C260.1,279.5 261.2,278.8 261.6,277.5 C261.8,276.9 261.8,276.2 261.8,275.5 C261.8,268.8 261.8,262.2 261.8,255.5 L261.8,254.3 L263.6,254.3 L263.6,255.7 C263.6,274.8 263.6,293.9 263.6,313 C263.6,313.4 263.6,313.8 263.6,314.2 C263.9,316.4 265.7,317.9 267.9,317.8 C270.2,317.7 271.8,315.9 271.8,313.3 C271.8,302.4 271.8,291.4 271.8,280.5 L271.8,279.2 L273.6,279.2 L273.6,280.4 C273.6,291.3 273.6,302.3 273.6,313.2 C273.6,313.8 273.6,314.3 273.8,314.9 C274.4,316.8 276.3,318.1 278.3,317.8 C280.3,317.5 281.9,315.8 281.9,313.6 C281.9,308.8 281.9,304 281.9,299.2 C281.9,284.6 281.9,270 281.9,255.4 L281.9,254.2 L283.7,254.2 L283.7,255.4 C283.7,262.1 283.7,268.8 283.7,275.5 C283.8,276 283.8,276.4 283.8,276.8 Z" id="Shape"></path>
            <path d="M220.5,338.7 C215.5,338.7 212.6,342.4 214,347.3 C215.6,353.4 217.3,359.5 219,365.6 C219.2,366.3 219.1,366.7 218.6,367.1 C216.5,369.1 215.4,371.6 215.2,374.4 C214.9,381.3 220.3,386.6 227.1,386.1 C232.8,385.7 237.6,380.1 236.9,374.4 C236.7,372.5 236,370.7 235.5,368.8 C236.4,368.8 237.6,368.8 238.8,368.8 C240.3,368.8 242,369.2 243.1,368.6 C244.2,368 244.7,366.3 245.4,365 C245.8,364.3 246.2,364.1 247,364.1 C254.2,364.1 261.4,364.1 268.6,364.1 L269.7,364.1 C270.1,375.4 277.2,382.7 285,385.1 C293.8,387.9 303.2,385.2 308.7,377.8 C316.1,367.9 315,358 307.5,348.5 C308.8,347.5 310.1,346.5 311.4,345.5 C311.6,345.3 312,345 312,344.8 C312.1,343.3 312,341.8 312,340.2 L301,340.2 L301,312.1 L296.3,312.1 L296.3,340.3 L294.9,340.3 C288.5,340.3 282.2,340.3 275.8,340.3 C273.3,340.3 272.1,341.5 272.1,344 C272.1,347.1 272.1,350.1 272.1,353.2 L272.1,354.4 L258.9,354.4 C262,348.1 265.1,341.9 268.2,335.5 C264.6,335.5 261.2,335.6 257.9,335.5 C256.2,335.4 255.2,335.9 254.7,337.6 C254.4,338.6 253.8,338.8 252.9,338.8 C242.1,338.7 231.3,338.7 220.5,338.7 Z M226,379.8 C223.5,379.8 221.3,377.6 221.3,375.1 C221.3,372.5 223.4,370.4 225.9,370.4 C228.5,370.4 230.5,372.4 230.6,375 C230.7,377.7 228.6,379.8 226,379.8 Z M291.6,351.4 C298.5,351.4 304.1,357 304.1,364 C304.1,370.9 298.5,376.6 291.6,376.7 C284.8,376.7 279.1,371 279.1,364.1 C279.1,357.1 284.7,351.4 291.6,351.4 Z" id="Shape"></path>
            <path d="M1464.1,372.7 C1464.1,373.2 1464.1,373.6 1464.1,374.1 C1464.3,375.9 1465.6,377.1 1467.3,377.2 C1468.9,377.3 1470.3,376.1 1470.6,374.3 C1470.7,373.7 1470.7,373.1 1470.7,372.5 C1470.7,364.6 1470.7,356.8 1470.7,348.9 C1470.7,347.8 1470.6,346.6 1470.5,345.5 C1469.9,340.4 1466.1,336.6 1461.3,336.6 C1454.7,336.5 1448,336.6 1441.4,336.6 C1439.6,336.6 1437.9,337.2 1436.5,338.2 C1433.3,340.5 1432.2,343.9 1432.2,347.6 C1432.1,356.1 1432.2,364.6 1432.2,373 C1432.2,373.6 1432.3,374.2 1432.4,374.7 C1432.8,376.2 1434,377.1 1435.5,377.2 C1436.9,377.2 1438.2,376.4 1438.6,374.9 C1438.8,374.2 1438.9,373.4 1438.9,372.6 C1438.9,364.9 1438.9,357.3 1438.9,349.6 L1438.9,348.2 L1441,348.2 L1441,349.9 C1441,371.9 1441,393.9 1441,415.8 C1441,416.3 1441,416.7 1441,417.2 C1441.3,419.7 1443.4,421.5 1446,421.4 C1448.6,421.3 1450.5,419.2 1450.5,416.3 C1450.5,403.7 1450.5,391.1 1450.5,378.6 L1450.5,377 L1452.6,377 L1452.6,378.3 C1452.6,390.9 1452.6,403.5 1452.6,416 C1452.6,416.6 1452.6,417.3 1452.8,417.9 C1453.4,420.1 1455.6,421.5 1457.9,421.2 C1460.2,420.9 1462,418.9 1462,416.4 C1462,410.9 1462,405.4 1462,399.8 C1462,383 1462,366.2 1462,349.4 L1462,348 L1464.1,348 L1464.1,349.4 C1464.1,357.2 1464,365 1464.1,372.7 Z" id="Shape"></path>
            <path d="M1442.4,326.2 C1442.4,330.9 1446.2,334.7 1450.9,334.7 C1455.6,334.7 1459.4,330.9 1459.4,326.2 C1459.4,321.6 1455.6,317.8 1451,317.8 C1446.3,317.7 1442.4,321.5 1442.4,326.2 Z" id="Shape"></path>
            <path d="M413.4,295.7 C413.4,298.6 415.8,301.1 418.8,301.1 C421.8,301.1 424.1,298.8 424.2,295.8 C424.2,292.8 421.8,290.4 418.8,290.4 C415.8,290.3 413.4,292.8 413.4,295.7 Z" id="Shape"></path>
            <path d="M409.3,305.2 C408.7,306.3 408.3,307.6 408,308.8 C406.6,313.4 405.2,318 403.9,322.6 C403.5,323.9 404.2,325 405.3,325.4 C406.5,325.8 407.5,325.2 408.1,323.9 C408.2,323.7 408.3,323.4 408.3,323.1 C409.5,318.9 410.8,314.7 412,310.5 C412.2,309.8 412.5,309.4 413.3,309.8 C411,318 408.6,326.1 406.3,334.4 L412.9,334.4 L412.9,335.7 L412.9,353.3 C412.9,354.4 413.1,355.4 414.1,355.9 C415.9,356.9 417.8,355.7 417.8,353.6 C417.8,347.6 417.8,341.5 417.8,335.5 L417.8,334.3 L419.8,334.3 L419.8,335.6 C419.8,341.4 419.8,347.1 419.8,352.9 C419.8,353.3 419.8,353.6 419.8,354 C420,355.7 421.4,356.6 423,356.1 C424.2,355.7 424.7,354.9 424.7,353.1 C424.7,347.3 424.7,341.5 424.7,335.7 L424.7,334.4 L431.3,334.4 C428.9,326.1 426.5,317.9 424.2,309.7 C425,309.4 425.4,309.5 425.6,310.3 C426.1,312.2 426.7,314 427.2,315.8 C428,318.4 428.7,320.9 429.5,323.5 C430,325.1 431.5,325.8 432.8,325.1 C433.9,324.5 434.1,323.5 434.1,322.4 C434.1,317.1 434.1,311.8 434.1,306.5 L434.1,305.3 L435.6,305.3 L435.6,306.7 C435.6,321.7 435.6,336.7 435.6,351.7 C435.6,352.2 435.6,352.8 435.7,353.3 C436,355.2 437.9,356.4 439.8,355.9 C441.4,355.4 442.2,354.2 442.2,352.2 C442.2,343.6 442.2,335 442.2,326.4 L442.2,325.2 L443.7,325.2 C443.7,325.7 443.7,326.1 443.7,326.4 C443.7,335.1 443.7,343.7 443.7,352.4 C443.7,354.5 445.1,356 447,356 C448.9,356 450.2,354.5 450.2,352.4 C450.2,348.1 450.2,343.7 450.2,339.4 C450.2,328.4 450.2,317.4 450.2,306.4 L450.2,305.2 L451.6,305.2 L451.6,306.4 C451.6,311.6 451.6,316.9 451.6,322.1 C451.6,322.5 451.6,322.8 451.7,323.2 C451.9,324.6 452.9,325.4 454.1,325.3 C455.3,325.2 456.1,324.3 456.2,322.9 C456.2,321.8 456.2,320.8 456.2,319.7 C456.2,314.5 456.3,309.2 456.1,304 C456,300.1 453.3,297.1 449.7,297.1 C445.2,297 440.6,297 436.1,297.1 C433.6,297.1 431.6,298.4 430.6,300.7 C430.1,301.9 429.9,303.2 429.7,304.5 C429.6,305.6 429.7,306.7 429.7,307.8 C429.3,307.2 429.1,306.6 428.9,306 C427.8,303.4 425.9,302 423,302 C420.1,302 417.1,302 414.2,302 C411.9,302.2 410.3,303.3 409.3,305.2 Z" id="Shape"></path>
            <path d="M442.5,284.3 C439.3,284.3 436.7,286.9 436.7,290.2 C436.7,293.4 439.3,296.1 442.5,296 C445.7,296 448.3,293.3 448.3,290.2 C448.4,287 445.7,284.3 442.5,284.3 Z" id="Shape"></path>
            <path d="M542,282.7 C534.4,276.6 526.5,270.8 518.8,264.9 C515.4,262.3 512,259.5 508.6,256.9 C522.5,237.2 516,213.3 500.3,202 C484,190.2 462.3,192.4 448.6,207.2 C435.4,221.4 434.9,243.7 447.5,258.6 C460.4,273.9 483.1,277.6 500.6,264.8 C503,267.8 505.3,270.8 507.6,273.8 C513.8,281.9 520,290.1 526.2,298.2 C529.2,302.1 532.6,305.7 537,308.1 C543.3,311.5 551.3,308 552.9,301 C553.8,297.3 552.5,294 550.3,291.3 C547.8,288.2 545.1,285.2 542,282.7 Z M477.2,262.1 C461.3,262 448.7,249.1 448.7,233 C448.7,217.3 461.7,204.6 477.6,204.6 C493.1,204.6 506,217.7 506,233.4 C506,249.3 493,262.2 477.2,262.1 Z" id="Shape"></path>
            <path d="M1560.2,200 C1555.8,195.8 1550.7,192.6 1545.1,190.3 C1542.2,189.1 1539.5,189.8 1537.6,192 C1536.4,193.4 1536.3,195.1 1536.3,196.8 C1536,209.9 1533.1,222.2 1526.7,233.7 C1525.8,235.3 1524.8,236.7 1523.8,238.2 C1522.8,239.7 1522.5,241.2 1523.1,243 C1523.2,243.4 1523.2,244 1522.9,244.3 C1521.1,246.3 1520.5,248.7 1520.5,251.3 C1520.5,267.7 1520.5,284.1 1520.5,300.5 C1520.5,300.9 1520.5,301.3 1520.6,301.7 C1520.8,303.2 1521.7,304 1523,304 C1524.3,304 1525.3,303 1525.3,301.4 C1525.3,296.8 1525.3,292.3 1525.3,287.7 C1525.3,275.7 1525.3,263.6 1525.3,251.6 C1525.3,251.1 1525.3,250.6 1525.3,250.1 C1525.5,248 1526.8,246.5 1528.8,246.3 C1530.7,246.2 1532.2,247.5 1532.7,249.6 C1532.9,250.4 1533.2,251.4 1533.9,251.8 C1534.5,252.2 1535.8,252.2 1536.3,251.9 C1536.9,251.5 1537.5,250.4 1537.5,249.6 C1537.4,246.3 1535.6,243.9 1532.5,242.2 C1537.9,234.1 1541.3,225.3 1543.8,215.9 C1544.1,216.7 1544.4,217.5 1544.6,218.3 C1547.7,227.1 1550.8,235.9 1553.9,244.7 C1554.2,245.5 1554.2,246.4 1554,247.3 C1550.3,263.9 1550.4,280.5 1555.1,296.9 C1556.2,300.6 1559.3,302.6 1562.7,301.7 C1566.2,300.8 1568.1,297.4 1567,293.6 C1564.4,284.6 1563.3,275.4 1563.9,266 C1564.2,260.9 1565,255.9 1565.9,250.9 C1566.3,248.7 1567.6,246.7 1568.5,244.6 C1571.1,238.1 1572.7,231.4 1572.2,224.4 C1571.5,214.6 1567.3,206.6 1560.2,200 Z" id="Shape"></path>
            <path d="M1517.4,360.8 C1517.4,356.5 1513.9,353 1509.6,353 C1505.3,353 1501.9,356.5 1501.9,360.8 C1501.9,365.1 1505.5,368.7 1509.7,368.6 C1514.1,368.6 1517.4,365.1 1517.4,360.8 Z" id="Shape"></path>
            <path d="M1501.2,284.4 C1492.5,278.1 1480.8,279.2 1473.5,287.2 C1466.4,294.8 1466.2,306.8 1472.9,314.8 C1479.8,323 1492,325 1501.4,318.1 C1502.7,319.7 1503.9,321.3 1505.2,322.9 C1508.5,327.3 1511.8,331.7 1515.2,336 C1516.8,338.1 1518.6,340 1521,341.3 C1524.4,343.1 1528.7,341.3 1529.5,337.5 C1530,335.5 1529.3,333.7 1528.1,332.3 C1526.7,330.7 1525.3,329 1523.6,327.7 C1519.5,324.4 1515.3,321.3 1511.2,318.1 C1509.4,316.7 1507.5,315.2 1505.7,313.8 C1513.1,303.3 1509.6,290.5 1501.2,284.4 Z M1488.8,316.8 C1480.3,316.8 1473.5,309.9 1473.5,301.2 C1473.5,292.8 1480.5,286 1489,286 C1497.3,286 1504.2,293 1504.2,301.4 C1504.3,309.8 1497.3,316.8 1488.8,316.8 Z" id="Shape"></path>
            <path d="M1232.2,338.5 C1226.6,339 1221.3,340.4 1217,344.2 C1211.7,348.8 1209.7,354.9 1209.1,361.7 C1209,363.1 1209.4,363.5 1210.7,363.4 C1214,363.3 1217.4,363.4 1220.7,363 C1227.1,362.1 1232.8,359.8 1236.8,354.4 C1240.1,349.7 1241.6,344.5 1241.7,338.5 C1238.3,338.4 1235.2,338.2 1232.2,338.5 Z" id="Shape"></path>
            <path d="M1194.4,323.9 C1188.6,320.9 1182.5,319.2 1176.1,317.9 C1172.2,317.1 1168.2,316.5 1164.2,315.9 C1164.1,316.4 1164,316.6 1164,316.9 C1163.8,326 1164.4,335.1 1167.3,343.9 C1169.4,350.2 1173.2,355 1179.4,357.7 C1186.4,360.7 1193.7,361.5 1201.2,361.4 C1201.7,361.4 1202.5,360.6 1202.7,360 C1204.6,355.2 1205.8,350.2 1206,345 C1206.4,333.8 1202.7,328.2 1194.4,323.9 Z" id="Shape"></path>
            <path d="M1184.2,272.3 C1185.5,273.9 1186.7,275.5 1188,277.1 C1191.3,281.5 1194.6,285.9 1198,290.2 C1199.6,292.3 1201.4,294.2 1203.8,295.5 C1207.2,297.3 1211.5,295.5 1212.3,291.7 C1212.8,289.7 1212.1,287.9 1210.9,286.5 C1209.5,284.9 1208.1,283.2 1206.4,281.9 C1202.3,278.6 1198.1,275.5 1194,272.3 C1192.2,270.9 1190.3,269.4 1188.5,268 C1196,257.5 1192.4,244.6 1184.1,238.6 C1175.4,232.3 1163.7,233.4 1156.4,241.4 C1149.3,249 1149.1,261 1155.8,269 C1162.6,277.1 1174.8,279.1 1184.2,272.3 Z M1171.9,240 C1180.2,240 1187.1,247 1187.1,255.4 C1187.1,263.9 1180.1,270.8 1171.6,270.8 C1163.1,270.8 1156.3,263.9 1156.3,255.2 C1156.4,246.9 1163.3,240 1171.9,240 Z" id="Shape"></path>
            <path d="M1256.7,346 C1255.6,347.3 1254.5,348.5 1253.4,349.8 C1255.1,350.2 1256.6,350.5 1258.3,350.9 C1257.6,352.4 1257,353.9 1256.3,355.5 C1258,355.3 1259.6,355.2 1261.3,355.1 C1261.2,356.8 1261,358.4 1260.9,360.1 C1262.5,359.4 1263.9,358.8 1265.5,358.1 C1265.9,359.7 1266.2,361.3 1266.6,363 C1267.9,361.9 1269.1,360.8 1270.4,359.7 C1271.3,361.1 1272.1,362.5 1273,364 C1273.9,362.5 1274.7,361.1 1275.6,359.7 C1276.9,360.8 1278.1,361.9 1279.4,363 C1279.8,361.3 1280.1,359.8 1280.5,358.1 C1282,358.8 1283.5,359.4 1285.1,360 C1284.9,358.3 1284.8,356.7 1284.7,355 C1286.4,355.1 1288,355.3 1289.7,355.4 C1289,353.8 1288.4,352.3 1287.7,350.8 C1289.3,350.4 1290.9,350.1 1292.6,349.7 C1291.5,348.4 1290.4,347.2 1289.3,345.9 C1290.7,345 1292.1,344.2 1293.6,343.3 C1292.1,342.4 1290.7,341.6 1289.3,340.7 C1290.4,339.4 1291.5,338.2 1292.6,336.9 C1290.9,336.5 1289.4,336.2 1287.7,335.8 C1288.4,334.2 1289,332.8 1289.7,331.2 C1288,331.4 1286.4,331.5 1284.7,331.6 C1284.9,329.9 1285,328.3 1285.1,326.6 C1283.5,327.3 1282,327.9 1280.5,328.5 C1280.1,326.9 1279.8,325.3 1279.4,323.6 C1278.1,324.7 1276.9,325.8 1275.6,326.9 C1274.7,325.5 1273.9,324.1 1273,322.6 C1272.1,324.1 1271.3,325.5 1270.4,326.9 C1269.1,325.8 1267.9,324.7 1266.6,323.6 C1266.2,325.3 1265.9,326.8 1265.5,328.5 C1264,327.8 1262.5,327.2 1260.9,326.6 C1261.1,328.3 1261.2,329.9 1261.3,331.6 C1259.6,331.5 1258,331.3 1256.3,331.2 C1257,332.8 1257.6,334.2 1258.3,335.8 C1256.7,336.2 1255.1,336.5 1253.4,336.9 C1254.5,338.2 1255.6,339.4 1256.7,340.7 C1255.3,341.6 1253.9,342.4 1252.4,343.3 C1253.9,344.4 1255.3,345.2 1256.7,346 Z M1264.7,342.3 L1266.4,342.3 C1266.1,341.4 1265.6,340.6 1265.4,339.8 C1264.7,336.9 1265.9,334.4 1268.6,333.1 C1270.9,332.1 1273.4,331.9 1275.9,332.7 C1278.5,333.6 1279.7,335.6 1280.1,338.2 C1280.2,338.7 1280.2,339.2 1280.2,339.8 C1278.9,339.8 1277.6,339.8 1276.4,339.8 C1276.3,339.8 1276.2,339.6 1276.1,339.5 C1276,339 1276,338.6 1275.9,338.1 C1275.5,336.5 1274.2,335.6 1272.5,335.8 C1270.6,336 1269.6,337.3 1269.9,339.3 C1270,340.3 1270.5,341.2 1271,342.1 C1271.1,342.2 1271.3,342.3 1271.5,342.3 C1272.6,342.3 1273.7,342.3 1274.7,342.3 L1275.2,342.3 L1275.2,345.1 L1271.9,345.1 C1272.6,347.6 1271.8,349.5 1269.8,351 C1271.4,350.1 1273,350.5 1274.6,350.8 C1275.2,350.9 1275.7,351 1276.3,351.1 C1277.3,351.2 1278.1,350.9 1278.9,350.2 C1279,350.1 1279.1,350 1279.2,349.9 C1279.8,350.9 1280.4,351.9 1281,352.9 C1279.5,354.3 1277.8,354.9 1275.8,354.8 C1274.7,354.7 1273.6,354.5 1272.6,354.1 C1270.6,353.4 1268.6,353.4 1266.8,354.7 C1266.8,354.7 1266.7,354.7 1266.7,354.7 C1266.1,353.8 1265.5,352.9 1264.9,352 C1265.2,351.8 1265.5,351.6 1265.7,351.4 C1266.7,350.6 1267.5,349.8 1268,348.6 C1268.4,347.6 1268.4,346.6 1267.9,345.6 C1267.8,345.3 1267.6,345.2 1267.3,345.2 C1266.5,345.2 1265.6,345.2 1264.8,345.2 L1264.8,342.3 L1264.7,342.3 Z" id="Shape"></path>
            <path d="M1299.4,306.4 C1299,306.6 1298.4,306.9 1298.3,307.3 C1297.9,309.3 1298.1,310.4 1300.3,310.3 C1302,310.2 1303.7,310.3 1305.5,310.3 L1305.5,311.4 C1305.5,317.4 1305.5,323.4 1305.5,329.4 C1305.5,332.8 1307.8,335.1 1311.2,335.1 C1324.7,335.1 1338.2,335.1 1351.6,335.1 C1355,335.1 1357.3,332.8 1357.3,329.4 C1357.3,323.4 1357.3,317.4 1357.3,311.4 L1357.3,310.4 C1357.7,310.4 1358,310.4 1358.3,310.4 C1359.9,310.4 1361.4,310.4 1363,310.4 C1363.7,310.4 1364.3,310.2 1364.6,309.6 C1365.4,307.9 1364.5,306.5 1362.6,306.5 C1341.8,306.5 1321,306.5 1300.2,306.5 C1300,306.4 1299.6,306.3 1299.4,306.4 Z" id="Shape"></path>
            <path d="M1323.1,293 C1319.9,293 1316.7,293.6 1313.8,294.9 C1310.9,296.2 1308.3,298 1306.6,300.8 C1305.9,302 1305.5,303.2 1305.5,304.7 L1357.6,304.7 C1357.3,303.6 1357.1,302.5 1356.7,301.6 C1355.4,298.8 1353.1,297 1350.4,295.6 C1347.1,293.8 1343.5,293 1339.8,293 L1336.8,293 C1336.8,291.9 1336.8,290.9 1336.8,289.9 C1336.8,288.7 1336.4,288.3 1335.2,288.3 C1332.7,288.3 1330.2,288.3 1327.7,288.3 C1326.6,288.3 1326.2,288.7 1326.2,289.8 C1326.2,290.8 1326.2,291.9 1326.2,293 C1325.1,293 1324.1,293 1323.1,293 Z M1328.6,290.7 L1334.4,290.7 L1334.4,292.9 L1328.6,292.9 L1328.6,290.7 Z" id="Shape"></path>
            <path d="M1394.5,320.4 C1394.9,320.4 1395.3,320.4 1395.5,320.2 C1395.8,319.9 1396.2,319.5 1396.2,319.1 C1396.2,318.7 1395.8,318.2 1395.5,317.9 C1395.3,317.7 1394.8,317.7 1394.5,317.7 C1387,317.7 1379.5,317.7 1372.1,317.7 C1371.8,317.7 1371.5,317.7 1371.2,317.8 C1370.4,318 1370.1,318.8 1370.4,319.6 C1370.7,320.3 1371.3,320.3 1372,320.3 C1375.3,320.3 1378.7,320.3 1382,320.3 C1382.3,320.3 1382.6,320.4 1382.8,320.5 C1384.9,322.6 1387.4,324.2 1390.3,325.1 C1390.5,325.2 1390.8,325.3 1391,325.4 C1390.9,325.7 1390.8,325.9 1390.7,326.2 C1389.2,329.5 1387.7,332.9 1386.2,336.2 C1385.5,337.8 1386,338.6 1387.7,338.6 C1395.2,338.6 1402.6,338.6 1410.1,338.6 C1410.4,338.6 1410.7,338.6 1411,338.5 C1411.9,338.3 1412.3,337.5 1411.9,336.7 C1411.7,336.3 1411.4,336 1411.2,335.6 C1408.8,332 1406.4,328.4 1403.9,324.7 C1410,321.9 1413.9,317.2 1415.2,310.6 C1416.4,304 1414.5,298.2 1409.8,293.3 C1411.3,291.8 1412.8,290.4 1414.2,288.9 C1415,288.1 1415,287.5 1414.2,286.6 C1413.5,285.9 1413.9,286.3 1413.2,285.6 C1414.5,284.3 1416.3,282.5 1417.7,281.1 C1417.9,280.9 1418.7,280.1 1418.2,279.4 C1417.6,278.7 1416.4,277.5 1415.8,277 C1415.3,276.5 1414.4,276.6 1413.8,277.2 C1412.3,278.7 1410.9,280.1 1409.3,281.7 C1408.5,280.9 1408.7,281 1407.9,280.3 C1407.3,279.7 1406.5,279.7 1405.8,280.3 C1398.5,287.6 1391.3,294.8 1384,302.1 C1383.1,303 1383.1,303.6 1384,304.6 C1386,306.7 1388.1,308.7 1390.1,310.7 C1390.8,311.4 1391.6,311.4 1392.4,310.7 C1397.4,305.7 1402.4,300.7 1407.3,295.7 C1407.5,295.5 1407.6,295.2 1407.7,295 C1414.7,302 1414.6,312.7 1407.5,319.2 C1401,325.2 1391.8,324.4 1386.7,320.3 C1389.4,320.4 1392,320.4 1394.5,320.4 Z" id="Shape"></path>
            <path d="M1318.7,407.5 C1319.6,407.3 1320,406.5 1319.6,405.7 C1319.4,405.3 1319.1,405 1318.9,404.6 C1316.5,401 1314.1,397.4 1311.6,393.7 C1317.7,390.9 1321.6,386.2 1322.9,379.6 C1324.1,373 1322.2,367.2 1317.5,362.3 C1319,360.8 1320.5,359.4 1321.9,357.9 C1322.7,357.1 1322.7,356.5 1321.9,355.6 C1321.2,354.9 1321.6,355.3 1320.9,354.6 C1322.2,353.3 1324,351.5 1325.4,350.1 C1325.6,349.9 1326.4,349.1 1325.9,348.4 C1325.3,347.7 1324.1,346.5 1323.5,346 C1323,345.5 1322.1,345.6 1321.5,346.2 C1320,347.7 1318.6,349.1 1317,350.7 C1316.2,349.9 1316.4,350 1315.6,349.3 C1315,348.7 1314.2,348.7 1313.5,349.3 C1306.2,356.6 1299,363.8 1291.7,371.1 C1290.8,372 1290.8,372.6 1291.7,373.6 C1293.7,375.7 1295.8,377.7 1297.8,379.7 C1298.5,380.4 1299.3,380.4 1300.1,379.7 C1305.1,374.7 1310.1,369.7 1315,364.7 C1315.2,364.5 1315.3,364.2 1315.4,364 C1322.4,371 1322.3,381.7 1315.2,388.2 C1308.7,394.2 1299.5,393.4 1294.4,389.3 C1297.1,389.3 1299.6,389.3 1302.2,389.3 C1302.6,389.3 1303,389.3 1303.2,389.1 C1303.5,388.8 1303.9,388.4 1303.9,388 C1303.9,387.6 1303.5,387.1 1303.2,386.8 C1303,386.6 1302.5,386.6 1302.2,386.6 C1294.7,386.6 1287.2,386.6 1279.8,386.6 C1279.5,386.6 1279.2,386.6 1278.9,386.7 C1278.1,386.9 1277.8,387.7 1278.1,388.5 C1278.4,389.2 1279,389.2 1279.7,389.2 C1283,389.2 1286.4,389.2 1289.7,389.2 C1290,389.2 1290.3,389.3 1290.5,389.4 C1292.6,391.5 1295.1,393.1 1298,394 C1298.2,394.1 1298.5,394.2 1298.7,394.3 C1298.6,394.6 1298.5,394.8 1298.4,395.1 C1296.9,398.4 1295.4,401.8 1293.9,405.1 C1293.2,406.7 1293.7,407.5 1295.4,407.5 C1302.9,407.5 1310.3,407.5 1317.8,407.5 C1318.1,407.6 1318.4,407.6 1318.7,407.5 Z" id="Shape"></path>
            <path d="M1642.7,294.5 C1642.7,285.7 1642.7,276.9 1642.7,268.1 C1642.7,266.5 1641.8,265.6 1640.2,265.6 C1628.9,265.6 1617.6,265.6 1606.3,265.6 C1605.4,265.6 1604.7,265.9 1604.1,266.5 C1603.4,267.3 1602.6,268.1 1601.8,268.8 C1598.3,272.3 1594.8,275.8 1591.3,279.4 C1590,280.7 1590,281.9 1591.3,283.2 C1593.4,285.4 1595.5,287.5 1597.6,289.7 L1598,290.1 C1600.1,292.2 1601.9,294 1604.1,296.2 C1604.7,296.8 1605.4,297.1 1606.3,297.1 C1617.6,297.1 1628.9,297.1 1640.2,297.1 C1641.8,297 1642.7,296.1 1642.7,294.5 Z M1608.3,291.4 L1605.7,291.4 L1605.7,270.9 L1608.3,270.9 L1608.3,291.4 Z M1612.9,291.4 L1610.3,291.4 L1610.3,270.9 L1612.9,270.9 L1612.9,291.4 Z M1617.1,291.4 L1614.5,291.4 L1614.5,270.9 L1617.1,270.9 L1617.1,291.4 Z M1619.7,291.4 L1618.5,291.4 L1618.5,270.9 L1619.7,270.9 L1619.7,291.4 Z M1623,291.4 L1621.7,291.4 L1621.7,270.9 L1623,270.9 L1623,291.4 Z M1629.8,291.4 L1626.3,291.4 L1626.3,270.9 L1629.8,270.9 L1629.8,291.4 Z M1635.3,291.4 L1632.1,291.4 L1632.1,270.9 L1635.3,270.9 L1635.3,291.4 Z M1638.3,291.4 L1637,291.4 L1637,270.9 L1638.3,270.9 L1638.3,291.4 Z" id="Shape"></path>
            <path d="M1701.1,294.5 C1701.1,285.7 1701.1,276.9 1701.1,268.1 C1701.1,266.5 1700.2,265.6 1698.6,265.6 C1687.3,265.6 1676,265.6 1664.7,265.6 C1663.8,265.6 1663.1,265.9 1662.5,266.5 C1661.8,267.3 1661,268.1 1660.2,268.8 C1656.7,272.3 1653.2,275.8 1649.7,279.4 C1648.4,280.7 1648.4,281.9 1649.7,283.2 C1651.8,285.4 1653.9,287.5 1656,289.7 L1656.4,290.1 C1658.5,292.2 1660.3,294 1662.5,296.2 C1663.1,296.8 1663.8,297.1 1664.7,297.1 C1676,297.1 1687.3,297.1 1698.6,297.1 C1700.2,297 1701.1,296.1 1701.1,294.5 Z M1666.7,291.4 L1664.1,291.4 L1664.1,270.9 L1666.7,270.9 L1666.7,291.4 Z M1671.3,291.4 L1668.7,291.4 L1668.7,270.9 L1671.3,270.9 L1671.3,291.4 Z M1675.5,291.4 L1672.9,291.4 L1672.9,270.9 L1675.5,270.9 L1675.5,291.4 Z M1678.1,291.4 L1676.9,291.4 L1676.9,270.9 L1678.1,270.9 L1678.1,291.4 Z M1681.4,291.4 L1680.1,291.4 L1680.1,270.9 L1681.4,270.9 L1681.4,291.4 Z M1688.2,291.4 L1684.7,291.4 L1684.7,270.9 L1688.2,270.9 L1688.2,291.4 Z M1693.7,291.4 L1690.5,291.4 L1690.5,270.9 L1693.7,270.9 L1693.7,291.4 Z M1696.7,291.4 L1695.4,291.4 L1695.4,270.9 L1696.7,270.9 L1696.7,291.4 Z" id="Shape"></path>
            <path d="M1610.2,343.3 C1606.2,339.8 1601.4,338.6 1596.3,338.1 C1593.6,337.9 1590.8,338.1 1587.7,338.1 C1587.8,343.5 1589.2,348.3 1592.2,352.6 C1595.8,357.6 1601.1,359.7 1606.9,360.5 C1609.9,360.9 1613,360.8 1616.1,360.9 C1617.2,360.9 1617.7,360.6 1617.5,359.3 C1616.8,353.1 1615,347.5 1610.2,343.3 Z" id="Shape"></path>
            <path d="M874.8,295 C875.4,295.2 875.9,295 876.3,294.5 C877.5,293.1 877.7,291.4 877.6,289.6 C877.5,287.9 876.9,286.4 876.3,284.9 C875.7,283.4 875.9,282 877,280.7 C877.6,280 877.6,279.1 877,278.6 C876.4,278.1 875.5,278.1 874.9,278.9 C874.3,279.6 873.8,280.5 873.5,281.3 C872.8,283 873.1,284.8 873.9,286.5 C874.4,287.7 874.8,289 874.8,290.4 C874.8,291.2 874.6,292.1 874,292.9 C873.5,293.6 873.9,294.7 874.8,295 Z" id="Shape"></path>
            <path d="M881.7,289 C882.3,289.2 882.8,289 883.2,288.5 C884.4,287.1 884.6,285.4 884.5,283.6 C884.4,281.9 883.8,280.4 883.2,278.9 C882.6,277.4 882.8,276 883.9,274.7 C884.5,274 884.5,273.1 883.9,272.6 C883.3,272.1 882.4,272.1 881.8,272.9 C881.2,273.6 880.7,274.5 880.4,275.3 C879.7,277 880,278.8 880.8,280.5 C881.3,281.7 881.7,283 881.7,284.4 C881.7,285.2 881.5,286.1 880.9,286.9 C880.3,287.6 880.7,288.7 881.7,289 Z" id="Shape"></path>
            <path d="M903,279.7 C903,279.9 903.3,280.1 903.5,280.2 C907.6,282 911.8,282.9 916.2,282.2 C916.6,280.7 916.9,279.1 917.5,277.8 C918.2,276.4 919.2,275.2 920.1,273.9 L902.9,273.9 C902.9,275.8 902.9,277.8 903,279.7 Z" id="Shape"></path>
            <path d="M853.5,284 C854,285.2 854.4,286.5 854.4,287.9 C854.4,288.7 854.2,289.6 853.6,290.4 C853,291.2 853.4,292.2 854.4,292.5 C855,292.7 855.5,292.5 855.9,292 C857.1,290.6 857.3,288.9 857.2,287.1 C857.1,285.4 856.5,283.9 855.9,282.4 C855.3,280.9 855.5,279.5 856.6,278.2 C857.2,277.5 857.2,276.6 856.6,276.1 C856,275.6 855.1,275.6 854.5,276.4 C853.9,277.1 853.4,278 853.1,278.8 C852.5,280.6 852.8,282.3 853.5,284 Z" id="Shape"></path>
            <path d="M908,304.8 C908.6,304.2 908.7,303.3 908.4,302.5 C908,301.6 907.3,301.2 906.4,301.3 C905.7,301.3 904.9,301.4 904.3,301.7 C902.2,302.6 900.2,303.5 898.2,304.5 C893.6,306.7 889.1,308.9 884.6,311.2 C883.6,311.7 882.8,311.7 881.8,311.1 C880.1,310.1 878.1,309.7 876.1,310.2 C873.1,311 870.9,312.7 869.6,315.6 C871.2,314.5 872.3,315.4 873.2,316.2 C874.2,315.8 874.9,315.4 875.7,315.4 C876.5,315.4 877.3,315.8 877.9,316.3 C879.1,317.1 880.7,317 881.7,318.1 C882.2,318.6 883.2,318.7 884.2,319 C884.3,318.7 884.6,318.2 884.7,317.6 C885,316.3 885.9,315.5 887.1,315 C889.4,313.9 891.7,312.8 894,311.8 C897.9,310.1 901.8,308.4 905.7,306.6 C906.6,306.1 907.4,305.5 908,304.8 Z" id="Shape"></path>
            <path d="M927.5,290.9 C932.2,290.7 936,286.8 935.8,282.2 C935.6,277.3 931.7,273.6 926.8,273.8 C922.2,274 918.5,277.9 918.7,282.5 C918.9,287.3 922.8,291.1 927.5,290.9 Z" id="Shape"></path>
            <path d="M861.2,295.5 C861.8,295.7 862.3,295.5 862.7,295 C863.9,293.6 864.1,291.9 864,290.1 C863.9,288.4 863.3,286.9 862.7,285.4 C862.1,283.9 862.3,282.5 863.4,281.2 C864,280.5 864,279.6 863.4,279.1 C862.8,278.6 861.9,278.6 861.3,279.4 C860.7,280.1 860.2,281 859.9,281.8 C859.2,283.5 859.5,285.3 860.3,287 C860.8,288.2 861.2,289.5 861.2,290.9 C861.2,291.7 861,292.6 860.4,293.4 C859.8,294.1 860.3,295.2 861.2,295.5 Z" id="Shape"></path>
            <path d="M868,292.6 C868.6,292.8 869.1,292.6 869.5,292.1 C870.7,290.7 870.9,289 870.8,287.2 C870.7,285.5 870.1,284 869.5,282.5 C868.9,281 869.1,279.6 870.2,278.3 C870.8,277.6 870.8,276.7 870.2,276.2 C869.6,275.7 868.7,275.7 868.1,276.5 C867.5,277.2 867,278.1 866.7,278.9 C866,280.6 866.3,282.4 867.1,284.1 C867.6,285.3 868,286.6 868,288 C868,288.8 867.8,289.7 867.2,290.5 C866.7,291.3 867.1,292.3 868,292.6 Z" id="Shape"></path>
            <path d="M834.6,327.5 C834.5,329.3 835.1,330.7 835.9,332.1 C838.2,336.4 841.6,339.8 845,343.2 C846.8,345 848.7,346.8 850.5,348.5 C851.1,349.1 851.3,349.7 851.3,350.5 C851.2,351.3 851.3,352.1 851.3,353 L884.9,353 C884.9,352.2 885,351.4 884.9,350.7 C884.8,349.6 885.2,348.9 885.9,348.1 C887.8,346.4 889.6,344.7 891.4,342.9 C894.7,339.6 898,336.3 900.3,332.2 C901.1,330.8 901.7,329.3 901.7,327.5 L834.6,327.5 Z" id="Shape"></path>
            <path d="M960.8,292.6 C961,292.4 961.8,291.6 961.3,290.9 C960.7,290.2 959.5,289 958.9,288.5 C958.4,288 957.5,288.1 956.9,288.7 C955.4,290.2 954,291.6 952.4,293.2 C951.6,292.4 951.8,292.5 951,291.8 C950.4,291.2 949.6,291.2 948.9,291.8 C941.6,299.1 934.4,306.3 927.1,313.6 C926.2,314.5 926.2,315.1 927.1,316.1 C929.1,318.2 931.2,320.2 933.2,322.2 C933.9,322.9 934.7,322.9 935.5,322.2 C940.5,317.2 945.5,312.2 950.4,307.2 C950.6,307 950.7,306.7 950.8,306.5 C957.8,313.5 957.7,324.2 950.6,330.7 C944.1,336.7 934.9,335.9 929.8,331.8 C932.5,331.8 935,331.8 937.6,331.8 C938,331.8 938.4,331.8 938.6,331.6 C938.9,331.3 939.3,330.9 939.3,330.5 C939.3,330.1 938.9,329.6 938.6,329.3 C938.4,329.1 937.9,329.1 937.6,329.1 C930.1,329.1 922.6,329.1 915.2,329.1 C914.9,329.1 914.6,329.1 914.3,329.2 C913.5,329.4 913.2,330.2 913.5,331 C913.8,331.7 914.4,331.7 915.1,331.7 C918.4,331.7 921.8,331.7 925.1,331.7 C925.4,331.7 925.7,331.8 925.9,331.9 C928,334 930.5,335.6 933.4,336.5 C933.6,336.6 933.9,336.7 934.1,336.8 C934,337.1 933.9,337.3 933.8,337.6 C932.3,340.9 930.8,344.3 929.3,347.6 C928.6,349.2 929.1,350 930.8,350 C938.3,350 945.7,350 953.2,350 C953.5,350 953.8,350 954.1,349.9 C955,349.7 955.4,348.9 955,348.1 C954.8,347.7 954.5,347.4 954.3,347 C951.9,343.4 949.5,339.8 947,336.1 C953.1,333.3 957,328.6 958.3,322 C959.5,315.4 957.6,309.6 952.9,304.7 C954.4,303.2 955.9,301.8 957.3,300.3 C958.1,299.5 958.1,298.9 957.3,298 C956.6,297.3 957,297.7 956.3,297 C957.6,295.8 959.4,294 960.8,292.6 Z" id="Shape"></path>
            <path d="M1548.4,348.6 C1550.5,350.7 1553,352.3 1555.9,353.2 C1556.1,353.3 1556.4,353.4 1556.6,353.5 C1556.5,353.8 1556.4,354 1556.3,354.3 C1554.8,357.6 1553.3,361 1551.8,364.3 C1551.1,365.9 1551.6,366.7 1553.3,366.7 C1560.8,366.7 1568.2,366.7 1575.7,366.7 C1576,366.7 1576.3,366.7 1576.6,366.6 C1577.5,366.4 1577.9,365.6 1577.5,364.8 C1577.3,364.4 1577,364.1 1576.8,363.7 C1574.4,360.1 1572,356.5 1569.5,352.8 C1575.6,350 1579.5,345.3 1580.8,338.7 C1582,332.1 1580.1,326.3 1575.4,321.4 C1576.9,319.9 1578.4,318.5 1579.8,317 C1580.6,316.2 1580.6,315.6 1579.8,314.7 C1579.1,314 1579.5,314.4 1578.8,313.7 C1580.1,312.4 1581.9,310.6 1583.3,309.2 C1583.5,309 1584.3,308.2 1583.8,307.5 C1583.2,306.8 1582,305.6 1581.4,305.1 C1580.9,304.6 1580,304.7 1579.4,305.3 C1577.9,306.8 1576.5,308.2 1574.9,309.8 C1574.1,309 1574.3,309.1 1573.5,308.4 C1572.9,307.8 1572.1,307.8 1571.4,308.4 C1564.1,315.7 1556.9,322.9 1549.6,330.2 C1548.7,331.1 1548.7,331.7 1549.6,332.7 C1551.6,334.8 1553.7,336.8 1555.7,338.8 C1556.4,339.5 1557.2,339.5 1558,338.8 C1563,333.8 1568,328.8 1572.9,323.8 C1573.1,323.6 1573.2,323.3 1573.3,323.1 C1580.3,330.1 1580.2,340.8 1573.1,347.3 C1566.6,353.3 1557.4,352.5 1552.3,348.4 C1555,348.4 1557.5,348.4 1560.1,348.4 C1560.5,348.4 1560.9,348.4 1561.1,348.2 C1561.4,347.9 1561.8,347.5 1561.8,347.1 C1561.8,346.7 1561.4,346.2 1561.1,345.9 C1560.9,345.7 1560.4,345.7 1560.1,345.7 C1552.6,345.7 1545.1,345.7 1537.7,345.7 C1537.4,345.7 1537.1,345.7 1536.8,345.8 C1536,346 1535.7,346.8 1536,347.6 C1536.3,348.3 1536.9,348.3 1537.6,348.3 C1540.9,348.3 1544.3,348.3 1547.6,348.3 C1547.9,348.4 1548.2,348.5 1548.4,348.6 Z" id="Shape"></path>
            <path d="M994,324.3 C999.8,324.3 1004.5,319.6 1004.5,313.8 C1004.5,308.1 999.8,303.4 994.1,303.4 C988.3,303.4 983.6,308 983.6,313.8 C983.5,319.6 988.2,324.3 994,324.3 Z" id="Shape"></path>
            <path d="M1000.6,282.3 C1000.6,277.5 996.7,273.8 992,273.8 C987.2,273.9 983.4,277.7 983.5,282.4 C983.6,287.1 987.5,290.9 992.2,290.8 C997,290.8 1000.7,287 1000.6,282.3 Z" id="Shape"></path>
            <path d="M986.1,273.4 C988.2,272 990.6,271.4 993.1,271.6 C997.1,271.9 1002.5,274.9 1003,282.2 C1005.3,282.8 1006.6,281.9 1006.6,279.6 C1006.6,274.9 1006.6,270.2 1006.6,265.4 C1006.6,264.8 1006.5,264.2 1006.3,263.6 C1004.3,258.7 1002.3,253.7 1000.3,248.8 C1000.1,248.2 999.8,247.9 999.1,247.9 C992.2,247.4 985.3,246.9 978.3,246.3 C978.1,246.3 977.9,246.3 977.6,246.3 L977.6,273.9 L934,273.9 C936.7,276.3 938,279 938.1,282.4 L981.2,282.4 C981.5,278.6 982.9,275.5 986.1,273.4 Z M986.2,250.9 C986.5,250.9 986.8,250.8 987,250.9 C990.5,251.2 994,251.5 997.4,251.7 C998.2,251.8 998.5,252.1 998.7,252.8 C1000,256.3 1001.4,259.7 1002.7,263.2 C1002.9,263.7 1003,264.1 1003.2,264.7 C997.4,264 991.8,263.3 986.1,262.5 L986.1,250.9 L986.2,250.9 Z" id="Shape"></path>
            <path d="M1651.3,380.2 C1655.6,378.8 1661.2,374.2 1663.6,370.6 C1650.9,355.6 1635.8,355.1 1623.6,370.4 C1629.2,376.1 1635,381.3 1643.4,381.6 C1646,381.8 1648.8,381.1 1651.3,380.2 Z" id="Shape"></path>
            <path d="M579.8,299.5 C578.9,300.5 578,301.5 577.1,302.6 C578.5,302.9 579.7,303.2 581,303.5 C580.5,304.8 580,306 579.4,307.2 C580.8,307.1 582.1,307 583.4,306.8 C583.3,308.2 583.2,309.5 583,310.8 C584.3,310.3 585.5,309.7 586.7,309.2 C587,310.5 587.3,311.8 587.6,313.2 C588.6,312.3 589.6,311.4 590.7,310.5 C591.4,311.7 592.1,312.8 592.8,314 C593.5,312.8 594.2,311.7 594.9,310.5 C595.9,311.4 596.9,312.3 598,313.2 C598.3,311.8 598.6,310.6 598.9,309.3 C600.2,309.8 601.4,310.3 602.6,310.9 C602.5,309.5 602.4,308.2 602.2,306.9 C603.6,307 604.9,307.1 606.2,307.3 C605.7,306 605.1,304.8 604.6,303.6 C605.9,303.3 607.2,303 608.6,302.7 C607.7,301.7 606.8,300.7 605.9,299.6 C607.1,298.9 608.2,298.2 609.4,297.5 C608.2,296.8 607.1,296.1 605.9,295.4 C606.8,294.4 607.7,293.4 608.6,292.3 C607.3,292 606,291.7 604.6,291.4 C605.1,290.1 605.7,288.9 606.2,287.7 C604.8,287.8 603.5,287.9 602.2,288.1 C602.3,286.7 602.4,285.4 602.6,284.1 C601.3,284.6 600.1,285.2 598.9,285.7 C598.6,284.4 598.3,283.1 598,281.8 C597,282.7 596,283.6 594.9,284.5 C594.2,283.3 593.5,282.2 592.8,281 C592.1,282.2 591.4,283.3 590.7,284.5 C589.7,283.6 588.7,282.7 587.6,281.8 C587.3,283.1 587,284.4 586.7,285.7 C585.4,285.2 584.2,284.7 583,284.1 C583.1,285.5 583.2,286.8 583.4,288.1 C582,288 580.7,287.9 579.4,287.7 C579.9,289 580.5,290.2 581,291.4 C579.7,291.7 578.4,292 577.1,292.3 C578,293.3 578.9,294.3 579.8,295.4 C578.6,296.1 577.5,296.8 576.3,297.5 C577.5,298.1 578.7,298.8 579.8,299.5 Z M586.3,296.4 L587.7,296.4 C587.4,295.7 587.1,295 586.9,294.4 C586.3,292.1 587.3,290 589.5,289 C591.4,288.1 593.4,288 595.4,288.7 C597.5,289.4 598.5,291 598.8,293.2 C598.9,293.6 598.9,294 598.9,294.5 C597.8,294.5 596.8,294.5 595.8,294.5 C595.7,294.5 595.6,294.3 595.6,294.2 C595.5,293.8 595.5,293.4 595.4,293.1 C595.1,291.8 594,291.1 592.7,291.2 C591.1,291.4 590.4,292.4 590.6,294.1 C590.7,294.9 591.1,295.6 591.5,296.3 C591.6,296.4 591.7,296.4 591.9,296.5 C592.8,296.5 593.6,296.5 594.5,296.5 L594.9,296.5 L594.9,298.8 L592.3,298.8 C592.8,300.8 592.2,302.4 590.6,303.6 C591.9,302.8 593.2,303.2 594.5,303.5 C595,303.6 595.4,303.7 595.9,303.7 C596.7,303.8 597.4,303.5 598,302.9 C598.1,302.8 598.2,302.7 598.3,302.6 C598.8,303.4 599.3,304.2 599.8,305.1 C598.6,306.2 597.2,306.7 595.6,306.7 C594.7,306.7 593.8,306.4 593,306.1 C591.3,305.5 589.7,305.6 588.2,306.6 C588.2,306.6 588.2,306.6 588.1,306.6 C587.6,305.9 587.1,305.1 586.6,304.4 C586.8,304.2 587.1,304.1 587.3,303.9 C588.1,303.3 588.8,302.6 589.1,301.6 C589.4,300.8 589.4,300 589.1,299.2 C589,299 588.9,298.8 588.6,298.9 C587.9,298.9 587.3,298.9 586.6,298.9 L586.6,296.4 L586.3,296.4 Z" id="Shape"></path>
            <path d="M1010.3,373 C1010.6,375.2 1012.2,376.7 1014.2,376.8 C1016.2,376.9 1017.9,375.4 1018.3,373.2 C1018.4,372.5 1018.5,371.7 1018.5,370.9 C1018.5,361.2 1018.5,351.5 1018.5,341.7 C1018.5,340.3 1018.4,338.9 1018.2,337.5 C1017.4,331.2 1012.8,326.5 1006.8,326.5 C998.6,326.4 990.4,326.4 982.2,326.5 C980,326.5 977.9,327.2 976.1,328.5 C972.1,331.4 970.8,335.5 970.7,340.2 C970.6,350.7 970.7,361.2 970.7,371.6 C970.7,372.3 970.8,373 971,373.7 C971.5,375.5 973,376.7 974.8,376.8 C976.5,376.8 978.1,375.8 978.6,374 C978.9,373.1 978.9,372.1 978.9,371.2 C978.9,361.7 978.9,352.2 978.9,342.8 L978.9,341.1 L981.5,341.1 L981.5,343.2 C981.5,370.4 981.5,397.5 981.5,424.7 C981.5,425.3 981.5,425.8 981.6,426.4 C982,429.5 984.6,431.7 987.7,431.5 C990.9,431.4 993.2,428.7 993.2,425.2 C993.2,409.6 993.2,394.1 993.2,378.5 L993.2,376.7 L995.8,376.7 L995.8,378.3 C995.8,393.9 995.8,409.4 995.8,425 C995.8,425.8 995.8,426.6 996,427.4 C996.8,430.2 999.5,431.9 1002.3,431.5 C1005.2,431.1 1007.4,428.6 1007.4,425.6 C1007.4,418.8 1007.4,411.9 1007.4,405.1 C1007.4,384.3 1007.4,363.6 1007.4,342.8 L1007.4,341 L1010,341 L1010,342.7 C1010,352.2 1010,361.8 1010,371.3 C1010.2,371.9 1010.2,372.5 1010.3,373 Z" id="Shape"></path>
            <rect id="Rectangle-path" x="1041.5" y="328.7" width="68" height="32.4"></rect>
            <path d="M1143.9,233.4 C1144.2,233.1 1145.3,232 1144.6,231.2 C1143.8,230.2 1142.1,228.7 1141.4,227.9 C1140.7,227.2 1139.5,227.3 1138.7,228.2 C1136.7,230.2 1134.8,232.1 1132.7,234.2 C1131.7,233.1 1131.9,233.3 1130.9,232.3 C1130,231.4 1129,231.4 1128.1,232.3 C1118.4,242 1108.6,251.8 1098.9,261.5 C1097.6,262.8 1097.6,263.5 1098.9,264.8 C1101.6,267.5 1104.4,270.3 1107.1,273 C1108.1,274 1109.1,274 1110.1,273 C1116.8,266.3 1123.4,259.7 1130.1,253 C1130.4,252.7 1130.5,252.3 1130.7,252 C1140.1,261.3 1140,275.7 1130.5,284.4 C1121.8,292.4 1109.5,291.4 1102.7,285.8 C1106.3,285.8 1109.7,285.8 1113.2,285.8 C1113.7,285.8 1114.3,285.8 1114.6,285.6 C1115.1,285.2 1115.6,284.6 1115.6,284.1 C1115.6,283.6 1115.1,282.9 1114.6,282.5 C1114.3,282.2 1113.7,282.3 1113.2,282.3 C1103.2,282.3 1093.2,282.3 1083.1,282.3 C1082.7,282.3 1082.3,282.3 1081.9,282.4 C1080.9,282.7 1080.4,283.8 1080.9,284.8 C1081.3,285.7 1082.1,285.8 1083,285.8 C1087.5,285.8 1091.9,285.8 1096.4,285.8 C1096.8,285.8 1097.3,285.9 1097.5,286.1 C1100.4,289 1103.7,291 1107.5,292.3 C1107.8,292.4 1108.1,292.5 1108.5,292.6 C1108.3,293 1108.2,293.3 1108.1,293.6 C1106.1,298.1 1104.1,302.5 1102,307 C1101,309.1 1101.7,310.2 1104.1,310.2 C1114.1,310.2 1124.1,310.2 1134.1,310.2 C1134.5,310.2 1134.9,310.2 1135.3,310.1 C1136.5,309.8 1137,308.7 1136.4,307.6 C1136.1,307.1 1135.8,306.6 1135.5,306.1 C1132.3,301.3 1129,296.4 1125.8,291.5 C1134,287.7 1139.2,281.5 1140.9,272.7 C1142.6,263.8 1140,256.1 1133.6,249.6 C1135.6,247.6 1137.6,245.7 1139.5,243.7 C1140.6,242.6 1140.6,241.8 1139.5,240.6 C1138.5,239.6 1139.1,240.2 1138.1,239.3 C1139.6,237.6 1142,235.3 1143.9,233.4 Z" id="Shape"></path>
            <path d="M822.7,381.9 L827,340.5 C827.2,339.5 826.7,339 825.7,339 L795.5,339 C794.4,338.9 794,339.4 794.1,340.5 L798.4,382.4 C798.5,383.3 799,383.9 800,384 L820.7,384 C822,383.8 822.7,383.1 822.7,381.9 Z M800.4,351.8 C799.5,351.6 798.6,351.2 797.7,350.4 L797,342.7 C796.8,341.7 797.2,341.3 798.1,341.4 L823.2,341.4 C824.1,341.4 824.4,341.9 824.3,342.7 L823.5,350.7 C823,350.7 822.5,350.7 822,350.7 C819.6,350.5 817.3,350 815.1,349.1 C812.8,348.2 810.4,348.2 808,348.9 C806.7,349.3 805.6,349.9 804.5,350.6 C803.6,351.2 802.7,351.7 801.9,351.8 L800.4,351.8 Z M818.9,382.1 C818.8,382.3 818.7,382.3 818.6,382.3 L802.4,382.3 C802.3,382.3 802.2,382.2 802.1,382.1 C802,382 802,381.8 802,381.5 C802,381.3 802,381.1 802.1,380.9 C802.2,380.8 802.3,380.7 802.4,380.7 L818.6,380.7 C818.7,380.7 818.8,380.8 818.9,380.9 C819,381.1 819.1,381.2 819.1,381.5 C819.1,381.7 819,381.9 818.9,382.1 Z" id="Shape"></path>
            <rect id="Rectangle-path" transform="translate(721.483513, 286.011439) rotate(-89.196447) translate(-721.483513, -286.011439) " x="709.733533" y="261.46148" width="23.4999611" height="49.0999187"></rect>
            <path d="M1381.8,360.3 C1381.8,363.5 1384.4,366.2 1387.6,366.1 C1390.8,366.1 1393.4,363.4 1393.4,360.3 C1393.4,357.1 1390.8,354.4 1387.6,354.4 C1384.4,354.4 1381.8,357 1381.8,360.3 Z" id="Shape"></path>
            <path d="M696.9,303.8 C696.9,303.9 697.1,304.1 697.2,304.2 C700.1,305.5 703.1,306.1 706.2,305.6 C706.5,304.6 706.7,303.5 707.1,302.5 C707.6,301.5 708.3,300.7 709,299.7 L696.9,299.7 C696.9,301 696.9,302.4 696.9,303.8 Z" id="Shape"></path>
            <path d="M713.6,299.3 C710.3,299.4 707.7,302.1 707.8,305.3 C707.9,308.7 710.6,311.3 713.9,311.3 C717.2,311.2 719.9,308.5 719.8,305.3 C719.7,301.9 717,299.3 713.6,299.3 Z" id="Shape"></path>
            <path d="M765.4,282.5 C765.2,282.1 765,281.9 764.5,281.8 C759.6,281.4 754.8,280.9 749.9,280.5 C749.8,280.5 749.6,280.5 749.4,280.5 L749.1,299.9 L718.5,299.5 C720.4,301.2 721.3,303.1 721.3,305.5 L751.6,305.9 C751.8,303.3 752.9,301.2 755.1,299.7 C756.6,298.7 758.3,298.3 760,298.5 C762.8,298.8 766.5,300.9 766.9,306 C768.5,306.5 769.4,305.8 769.4,304.2 C769.4,300.9 769.5,297.6 769.5,294.3 C769.5,293.9 769.4,293.4 769.3,293 C768.1,289.4 766.7,286 765.4,282.5 Z M755.3,292 L755.4,283.9 C755.6,283.9 755.8,283.9 756,283.9 C758.4,284.1 760.9,284.4 763.3,284.6 C763.9,284.6 764.1,284.9 764.2,285.4 C765.1,287.9 766,290.3 766.9,292.7 C767,293 767.1,293.4 767.3,293.8 C763.3,293.1 759.4,292.5 755.3,292 Z" id="Shape"></path>
            <path d="M677.1,330.4 C670,338 669.8,350 676.5,358 C683.4,366.2 695.6,368.2 705,361.3 C706.3,362.9 707.5,364.5 708.8,366.1 C712.1,370.5 715.4,374.9 718.8,379.2 C720.4,381.3 722.2,383.2 724.6,384.5 C728,386.3 732.3,384.5 733.1,380.7 C733.6,378.7 732.9,376.9 731.7,375.5 C730.3,373.9 728.9,372.2 727.2,370.9 C723.1,367.6 718.9,364.5 714.8,361.3 C713,359.9 711.1,358.4 709.3,357 C716.8,346.5 713.2,333.6 704.9,327.6 C696.1,321.3 684.4,322.4 677.1,330.4 Z M707.9,344.5 C707.9,353 700.9,359.9 692.4,359.9 C683.9,359.9 677.1,353 677.1,344.3 C677.1,335.9 684.1,329.1 692.6,329.1 C701,329.1 707.9,336.1 707.9,344.5 Z" id="Shape"></path>
            <path d="M765.3,306 C765.3,302.6 762.7,300 759.3,300 C756,300 753.3,302.7 753.3,306 C753.3,309.3 756,312 759.3,312 C762.6,312 765.3,309.3 765.3,306 Z" id="Shape"></path>
            <path d="M780.2,315.2 C779.7,314.7 778.8,314.8 778.2,315.4 C776.7,316.9 775.3,318.3 773.7,319.9 C772.9,319.1 773.1,319.2 772.3,318.5 C771.7,317.9 770.9,317.9 770.2,318.5 C762.9,325.8 755.7,333 748.4,340.3 C747.5,341.2 747.5,341.8 748.4,342.8 C750.4,344.9 752.5,346.9 754.5,348.9 C755.2,349.6 756,349.6 756.8,348.9 C761.8,343.9 766.8,338.9 771.7,333.9 C771.9,333.7 772,333.4 772.1,333.2 C779.1,340.2 779,350.9 771.9,357.4 C765.4,363.4 756.2,362.6 751.1,358.5 C753.8,358.5 756.3,358.5 758.9,358.5 C759.3,358.5 759.7,358.5 759.9,358.3 C760.2,358 760.6,357.6 760.6,357.2 C760.6,356.8 760.2,356.3 759.9,356 C759.7,355.8 759.2,355.8 758.9,355.8 C751.4,355.8 743.9,355.8 736.5,355.8 C736.2,355.8 735.9,355.8 735.6,355.9 C734.8,356.1 734.5,356.9 734.8,357.7 C735.1,358.4 735.7,358.4 736.4,358.4 C739.7,358.4 743.1,358.4 746.4,358.4 C746.7,358.4 747,358.5 747.2,358.6 C749.3,360.7 751.8,362.3 754.7,363.2 C754.9,363.3 755.2,363.4 755.4,363.5 C755.3,363.8 755.2,364 755.1,364.3 C753.6,367.6 752.1,371 750.6,374.3 C749.9,375.9 750.4,376.7 752.1,376.7 C759.6,376.7 767,376.7 774.5,376.7 C774.8,376.7 775.1,376.7 775.4,376.6 C776.3,376.4 776.7,375.6 776.3,374.8 C776.1,374.4 775.8,374.1 775.6,373.7 C773.2,370.1 770.8,366.5 768.3,362.8 C774.4,360 778.3,355.3 779.6,348.7 C780.8,342.1 778.9,336.3 774.2,331.4 C775.7,329.9 777.2,328.5 778.6,327 C779.4,326.2 779.4,325.6 778.6,324.7 C777.9,324 778.3,324.4 777.6,323.7 C778.9,322.4 780.7,320.6 782.1,319.2 C782.3,319 783.1,318.2 782.6,317.5 C782,316.9 780.8,315.7 780.2,315.2 Z" id="Shape"></path>
            <path d="M799.3,271.2 C795.7,271.7 792.2,272.6 789,274.3 C786.6,275.6 784.5,277.2 783.6,279.8 C783.1,281.4 782.7,283 782.4,284.6 C781.7,288.3 782.4,291.6 784.8,294.6 C786.3,296.5 788.2,298 790.3,299.1 C794,301.2 798,302.3 802.2,302.8 C803.7,303 805.2,303 806.8,303.1 L806.8,294 C808.5,294.3 810,294.7 811.7,295 C811.4,297.2 811.1,299.3 810.6,301.4 C810.4,302.2 810.6,302.6 811.2,303 C814.8,305.5 818.6,307.6 822.8,309 C825,309.8 827,309.5 829,308.3 C831.8,306.7 834,304.6 835.7,301.9 C838.1,298 839.5,293.9 838.7,289.2 C838.1,285.2 835.1,282.2 831.1,281.7 C830.1,281.6 829.1,281.6 828.1,281.5 C828.3,279.1 827,277.4 825.3,275.9 C824.8,275.5 824.2,275 823.6,274.7 C819.4,272.2 814.8,271.2 810,270.8 C806.4,270.6 802.8,270.7 799.3,271.2 Z M827.5,295.1 C829,297 830.2,299 829.9,301.6 C829.6,304 828.8,306.3 827.4,308.4 C827.2,308.7 826.8,308.8 826.5,308.9 C825,309.1 823.5,308.7 822.1,308.2 C818.4,306.8 815,304.9 811.7,302.7 C811.2,302.4 811.1,302.1 811.3,301.5 C812.1,297.5 812.5,293.5 812.5,289.5 C812.5,287.9 812.5,286.3 812.5,284.4 C814.8,285.7 817,286.9 819.1,288.2 C822.3,290.1 825.2,292.2 827.5,295.1 Z M824.2,282 C820.2,282.5 816.1,283.1 811.8,283.6 L811.8,294.4 C810,294 808.4,293.7 806.9,293.4 C806.6,288.1 806.3,282.9 805.9,277.6 C812.2,278.6 818.4,279.6 824.2,282 Z" id="Shape"></path>
            <path d="M617.7,243.1 C615.5,243.1 614,244.6 614,246.8 C614,249 615.5,250.5 617.7,250.5 C619.4,250.5 621.2,250.5 622.9,250.5 C623.6,250.5 624,250.7 624.3,251.4 C626.8,256.9 629.3,262.4 631.8,267.9 C633.4,271.4 635,274.9 636.6,278.4 C635.2,279.5 633.8,280.5 632.5,281.5 C628.5,284.8 628.1,290.2 631.6,293.7 C633.6,295.7 636.2,296.3 639,296.3 C652,296.3 665,296.3 678,296.3 C678.4,296.3 678.9,296.3 679.3,296.2 C680.6,296 681.4,295.3 681.8,294.1 C682.6,291.7 681,289.6 678.4,289.6 C665.6,289.6 652.7,289.6 639.9,289.6 C639.5,289.6 639.1,289.6 638.6,289.6 C637.4,289.5 636.5,288.8 636.4,287.8 C636.2,286.7 636.8,285.6 637.9,285.1 C638.5,284.9 639.1,284.7 639.7,284.7 C642.3,284.4 644.9,284.1 647.5,283.8 C652.9,283.2 658.3,282.6 663.7,282 C669.2,281.4 674.7,280.8 680.2,280.1 C683.1,279.8 684.4,278.3 684.4,275.3 C684.4,269.3 684.4,263.3 684.4,257.3 C684.4,256.9 684.4,256.5 684.3,256.1 C684.1,254.5 683.1,253.2 681.5,252.8 C680.9,252.6 680.2,252.6 679.6,252.6 C664.5,252.6 649.4,252.6 634.3,252.6 C633.7,252.6 633.4,252.4 633.1,251.9 C632.2,250 631.3,248.2 630.4,246.4 C629.4,244.1 627.6,243 625.1,243.1 C622.6,243.1 620.1,243.1 617.7,243.1 Z M678.7,274.1 C678.7,274.5 678.6,274.7 678.1,274.7 C675.5,274.9 672.8,275.2 670.2,275.5 C669.6,275.6 669.4,275.5 669.2,274.8 C668.8,273.1 668.4,271.5 667.9,269.8 C667.9,269.6 667.8,269.4 667.8,269.1 L674.3,269.1 C675.5,269.1 676.8,269.1 678,269.1 C678.4,269.1 678.7,269.2 678.7,269.7 C678.6,271.2 678.6,272.6 678.7,274.1 Z M678.7,258.5 L678.7,261.6 C678.7,262.7 678.7,263.8 678.7,264.9 C678.7,265.1 678.4,265.5 678.3,265.5 C674.6,265.5 670.8,265.5 667,265.5 C666.5,263.2 666,260.9 665.5,258.5 L678.7,258.5 Z M664,269.4 C664.7,271.6 665.3,273.8 666,276.1 C663,276.4 660.1,276.7 657.2,276.9 C657,276.9 656.8,276.8 656.7,276.7 C655.9,274.2 655.1,271.7 654.2,269.1 L658.9,269.1 C660.4,269.1 661.8,269.1 663.3,269.1 C663.6,269.1 664,269.3 664,269.4 Z M661.7,258.4 C662.2,260.7 662.8,263 663.3,265.3 C663,265.3 662.8,265.4 662.6,265.4 C659.7,265.4 656.8,265.4 653.9,265.4 C653.4,265.4 653.1,265.2 653,264.7 C652.4,262.8 651.9,260.9 651.3,259.1 C651.2,258.9 651.2,258.7 651.1,258.4 L661.7,258.4 Z M650.6,269.5 C651.5,272.1 652.3,274.7 653.2,277.4 C651.8,277.5 650.5,277.7 649.2,277.8 C648,277.9 646.7,278.1 645.5,278.1 C645.2,278.1 644.8,277.9 644.7,277.7 C643.4,274.9 642.1,272.1 640.8,269.4 C640.8,269.3 640.8,269.3 640.7,269.1 C643.8,269.1 646.8,269.1 649.9,269.1 C650.2,269.1 650.5,269.3 650.6,269.5 Z M636.6,258.4 C639.9,258.4 643.3,258.4 646.6,258.4 C647,258.4 647.3,258.4 647.4,258.9 C648,261 648.7,263 649.4,265.1 C649.4,265.2 649.4,265.3 649.4,265.4 C646.6,265.4 643.8,265.3 641,265.4 C639.6,265.5 638.8,265.1 638.3,263.7 C637.7,261.9 636.8,260.2 635.9,258.4 C636.3,258.4 636.5,258.4 636.6,258.4 Z" id="Shape"></path>
            <path d="M640.3,304.8 C640.3,301.6 637.8,299 634.6,299 C631.5,299 628.9,301.6 628.9,304.8 C628.9,307.9 631.4,310.4 634.5,310.5 C637.8,310.5 640.3,308 640.3,304.8 Z" id="Shape"></path>
            <path d="M608.4,367.2 C609.5,367.2 610,366.9 609.8,365.6 C609.2,359.4 607.4,353.8 602.5,349.6 C598.5,346.1 593.7,344.9 588.6,344.4 C585.9,344.2 583.1,344.4 580,344.4 C580.1,349.8 581.5,354.6 584.5,358.9 C588.1,363.9 593.4,366 599.2,366.8 C602.3,367.2 605.4,367.1 608.4,367.2 Z" id="Shape"></path>
            <path d="M612.6,350.3 C612.8,355 613.9,359.6 615.6,364 C615.8,364.6 616.5,365.3 617,365.3 C623.8,365.4 630.5,364.7 636.9,361.9 C642.6,359.4 646,355.1 648,349.3 C650.7,341.3 651.2,333 651,324.7 C651,324.5 650.9,324.3 650.8,323.8 C647.2,324.4 643.5,324.9 639.9,325.7 C634.1,326.9 628.5,328.5 623.2,331.2 C615.6,335.1 612.3,340.2 612.6,350.3 Z" id="Shape"></path>
            <path d="M679,304.8 C679,301.6 676.5,299.1 673.4,299.1 C670.2,299.1 667.6,301.6 667.6,304.8 C667.6,307.9 670.2,310.5 673.3,310.5 C676.5,310.5 679,308 679,304.8 Z" id="Shape"></path>
        </g>
    </g>
</svg>